<svg width="54" height="52" viewBox="0 0 54 52" fill="none" xmlns="http://www.w3.org/2000/svg">
<path d="M53.1 27.6C53.1 40.9 42.3 51.7 29 51.7C15.7 51.7 5 40.9 5 27.6C5 14.3 15.8 3.5 29.1 3.5C42.3 3.6 53.1 14.3 53.1 27.6Z" fill="#EDC951"/>
<path d="M44.8 24.2C44.8 26.9 42.6 29.1 39.9 29.1C37.2 29.1 35 26.9 35 24.2C35 21.5 37.2 19.3 39.9 19.3C42.6 19.3 44.8 21.5 44.8 24.2Z" fill="white"/>
<path d="M24.6001 24.2C24.6001 26.9 22.4001 29.1 19.7001 29.1C17.0001 29.1 14.8 26.9 14.8 24.2C14.8 21.5 17.0001 19.3 19.7001 19.3C22.4001 19.3 24.6001 21.5 24.6001 24.2Z" fill="white"/>
<path d="M38.5001 19.8C38.5001 21.8 36.9001 23.4 34.9001 23.4C32.9001 23.4 31.3 21.8 31.3 19.8C31.3 17.8 32.9001 16.2 34.9001 16.2C36.9001 16.2 38.5001 17.8 38.5001 19.8Z" fill="black"/>
<path d="M36.1 28C32.7 28 30 25.3 30 21.9C30 18.5 32.7 15.8 36.1 15.8C39.5 15.8 42.2 18.5 42.2 21.9C42.2 25.3 39.5 28 36.1 28ZM36.1 18.3C34.1 18.3 32.4 20 32.4 22C32.4 24 34.1 25.7 36.1 25.7C38.1 25.7 39.8 24 39.8 22C39.8 19.9 38.2 18.3 36.1 18.3Z" fill="black"/>
<path d="M16 28C12.6 28 9.90002 25.3 9.90002 21.9C9.90002 18.5 12.6 15.8 16 15.8C19.4 15.8 22.1 18.5 22.1 21.9C22.1 25.3 19.3 28 16 28ZM16 18.3C14 18.3 12.3 20 12.3 22C12.3 24 14 25.7 16 25.7C18 25.7 19.7 24 19.7 22C19.7 19.9 18 18.3 16 18.3Z" fill="black"/>
<path d="M18.3 19.8C18.3 21.8 16.7 23.4 14.7 23.4C12.7 23.4 11.1 21.8 11.1 19.8C11.1 17.8 12.7 16.2 14.7 16.2C16.7 16.2 18.3 17.8 18.3 19.8Z" fill="black"/>
<path d="M25.3 50.6C11.4 50.6 0 39.3 0 25.3C0 11.4 11.3 0 25.3 0C39.2 0 50.6 11.3 50.6 25.3C50.5 39.3 39.2 50.6 25.3 50.6ZM25.3 2.5C12.7 2.5 2.39999 12.8 2.39999 25.4C2.39999 38 12.7 48.3 25.3 48.3C37.9 48.3 48.2 38 48.2 25.4C48.1 12.8 37.9 2.5 25.3 2.5Z" fill="black"/>
</svg>
